<?xml version="1.0" encoding="UTF-8" standalone="no"?>
<svg
   xmlns:dc="http://purl.org/dc/elements/1.1/"
   xmlns:cc="http://creativecommons.org/ns#"
   xmlns:rdf="http://www.w3.org/1999/02/22-rdf-syntax-ns#"
   xmlns:svg="http://www.w3.org/2000/svg"
   xmlns="http://www.w3.org/2000/svg"
   viewBox="0 0 800 800"
   height="800"
   width="800"
   version="1.1"
   id="svg4206">
  <metadata
     id="metadata4212">
    <rdf:RDF>
      <cc:Work
         rdf:about="">
        <dc:format>image/svg+xml</dc:format>
        <dc:type
           rdf:resource="http://purl.org/dc/dcmitype/StillImage" />
        <dc:title></dc:title>
      </cc:Work>
    </rdf:RDF>
  </metadata>
  <defs
     id="defs4210" />
  <path
     id="path4216"
     d="m 572.57321,2.276157 c -8.93186,-0.051706 -18.56714,0.6982084 -29.64123,2.0310366 -42.70972,5.1402439 -73.82286,15.6054784 -98.67099,33.1885144 -24.10092,17.054249 -35.7546,27.363729 -47.86426,42.34503 -5.73782,7.098229 -10.8393,13.311401 -11.33664,13.8065 -10.56739,10.519922 -28.12182,41.519522 -33.56827,59.276852 -15.64225,50.99924 -15.28525,86.91263 1.37558,137.89633 3.22983,9.88327 5.93244,18.37493 6.0059,18.87002 0.0732,0.4951 0.62047,1.71034 1.21804,2.70055 2.08511,3.45581 5.88743,16.21877 5.4686,18.35804 -0.23233,1.18606 1.22308,3.03876 3.23502,4.11552 2.01194,1.07674 3.65979,3.4999 3.65979,5.387 0,1.88712 0.81016,3.93394 1.80036,4.54591 0.9902,0.61198 1.80036,2.68304 1.80036,4.605 0,1.92195 1.55098,5.04754 3.44881,6.94545 1.89789,1.89787 3.0331,3.87016 2.5205,4.38274 -0.51258,0.51257 1.20329,3.73293 3.81452,7.15643 1.60874,2.10926 2.94477,4.38282 3.67105,6.12405 0.35092,-0.02 0.77019,0.11094 1.30526,0.47822 0.25454,0.17469 0.24078,0.54237 0.2785,0.87205 0.0782,0.043 -4e-5,0.005 0.0956,0.0563 0.13265,0.25858 0.26735,0.51759 0.39945,0.77641 0.0772,0.11997 0.15892,0.23684 0.21942,0.3657 0.0643,0.13711 -0.28818,-0.43655 -0.33477,-0.30662 -0.69654,-0.23564 0.3392,0.82763 1.11962,1.59501 0.0243,0.0238 -0.002,-0.31361 -0.0788,-0.54012 l -0.15471,-0.19691 c 0.0682,-0.0129 0.11598,0.0813 0.15471,0.19691 l 0.24755,0.31787 c -0.0194,-0.005 -0.0671,-0.0313 -0.0563,-0.0144 0.0539,0.0834 0.13496,0.14537 0.19411,0.22505 0.012,0.015 -0.0555,-0.0425 -0.0478,-0.0254 0.14454,0.32497 0.30058,0.64337 0.45853,0.96207 0.0805,0.0248 0.15927,0.0549 0.23912,0.0815 0.0331,0.0464 0.0664,0.0925 0.10124,0.13783 0.0636,0.0294 0.2465,0.20269 0.30101,0.28974 0.0326,0.052 -0.0834,-0.0351 -0.16035,-0.09 10e-4,0.002 0.002,0.006 0.006,0.008 0.39615,0.20926 0.34418,0.16786 0.73703,0.46135 1.0824,0.67604 -0.0302,-0.15119 0.90018,2.25887 0.20113,0.521 0.14775,-0.66958 0.0449,-1.16459 -0.0479,-0.0479 -0.0754,-0.09 -0.1266,-0.14073 0.0435,-0.14688 0.0878,-0.0462 0.1266,0.14073 0.45383,0.45434 0.77636,0.82941 0.91706,1.50217 0.0784,0.11119 0.16382,0.21963 0.21941,0.3432 0.0223,0.0496 -0.0835,-0.0756 -0.13496,-0.0929 -0.24487,-0.0826 -0.95646,-0.35844 -0.74826,-0.20535 0.57222,0.42074 1.70798,0.27989 1.48249,1.45154 10e-4,0.0334 0.0363,0.15204 0.0534,0.22223 0.17814,0.10891 0.34742,0.22869 0.46978,0.39383 0.14187,0.19154 0.16105,0.44125 0.19692,0.68358 0.20692,0.16642 0.37643,0.3547 0.42759,0.5823 0.1423,0.10831 0.34102,0.35193 0.3882,0.43883 0.0698,-0.0129 0.14172,0.21802 0.19972,0.31506 0.0515,0.0861 0.51222,0.99 0.50072,1.12804 -7.8e-4,0.01 -0.006,10e-4 -0.008,0.006 0.11957,0.18546 0.2151,0.37935 0.28412,0.58512 0.4869,0.26104 0.88064,0.70798 0.99299,1.24055 0.0211,0.0998 -0.29818,-0.40273 -0.24753,-0.17721 0.47943,0.38737 0.9732,0.85806 1.2068,1.44591 0.42302,0.18262 0.83878,0.5038 0.82142,0.86362 0.12616,0.26236 0.20848,0.41272 0.2616,0.58792 0.14345,0.1351 0.2931,0.26467 0.42196,0.41352 0.0775,0.0895 0.14101,0.19425 0.18568,0.30382 0.0651,0.15978 -0.6066,-0.21608 -0.25881,0.0144 0.25048,0.16577 0.3578,0.22013 0.44446,0.2588 0.44959,-0.007 0.89489,0.0938 1.29401,0.3404 1.2583,0.77803 1.58098,1.306 0.97895,1.95787 0.0429,0.0627 0.0733,0.0998 0.18004,0.30663 0.0237,0.0461 0.0334,0.0975 0.0506,0.14629 0.0526,0.0826 0.10448,0.16541 0.15754,0.24754 0.59678,0.30905 0.65014,0.48253 0.8411,1.05209 0.008,0.0151 0.0224,0.042 0.028,0.0591 0.36255,0.31361 0.28724,0.18421 0.5823,0.61607 -0.0462,0.29017 0.0584,-0.45455 0.4332,0.46698 0.0906,0.22271 0.12977,0.46061 0.16318,0.70045 0.10232,0.0781 0.20818,0.15236 0.31223,0.22785 l -0.0703,-0.076 c 0.0546,0.0487 0.22494,0.18546 0.16316,0.14629 -0.0324,-0.0206 -0.0616,-0.0477 -0.0929,-0.0703 l 0.41071,0.44728 c 0.0736,0.277 -0.0129,-0.007 0.35444,0.52885 0.0779,0.11383 0.16695,0.22198 0.21379,0.35163 0.012,0.0328 -0.11849,-0.0624 -0.0985,-0.0337 0.1266,0.18081 0.39557,0.23312 0.49509,0.43882 0.11646,0.11418 0.2512,0.21245 0.34883,0.3432 0.26076,0.34926 0.42685,0.77245 0.67231,1.24618 0.0627,0.17964 0.13654,0.35708 0.18847,0.54011 0.008,0.0284 -0.008,0.058 -0.012,0.0871 0.0326,0.0913 0.0659,0.18432 0.0985,0.27567 0.0609,0.14071 0.28723,0.35625 0.29818,0.46696 0.16677,0.15556 0.2436,0.21307 0.34883,0.33476 0.0599,0.0694 0.0915,0.17464 0.12934,0.27288 1.24668,-0.8566 1.82813,-0.91033 1.25181,0.0507 -0.16041,0.26748 -0.2681,0.54982 -0.33475,0.83268 0.0864,0.13984 0.17154,0.29348 0.27568,0.48103 0.006,0.012 -0.0242,-0.006 -0.0366,-0.008 0.1088,0.21783 0.22497,0.63511 0.29819,0.93676 0.0426,0.0855 0.0825,0.17263 0.12372,0.2588 0.2492,0.32324 0.35329,0.45462 0.59916,0.90299 -0.008,-0.001 -0.017,-0.005 -0.0253,-0.006 0.0626,0.13293 0.12602,0.26645 0.18847,0.39945 0.11706,0.16534 0.20795,0.35098 0.28695,0.54574 0.0715,0.0761 0.13049,0.16025 0.18846,0.24473 0.17623,0.13971 0.59071,0.47341 0.52323,0.55698 -0.005,0.005 -0.01,-8.5e-4 -0.0144,0.002 0.28179,0.39 0.44847,0.87316 0.70888,1.28276 0.002,0.002 -0.001,-0.0158 0,-0.0169 -4e-4,-0.001 -0.002,-0.007 -0.002,-0.008 -10e-4,-0.0501 -0.012,-0.0996 -0.006,-0.1491 0.002,-0.0237 0.0213,0.14755 0.008,0.15753 0.0176,0.0776 0.058,0.23132 0.0956,0.37977 0.11538,0.11837 0.22341,0.24446 0.33475,0.36569 0.034,0.0369 0.0429,0.0899 0.0647,0.13496 0.076,0.2554 0.15167,0.51263 0.22787,0.76796 0.0478,0.0374 -0.005,8.1e-4 0.062,0.0507 0.0811,0.11657 0.19436,0.21607 0.24473,0.34881 0.40022,1.05466 0.38441,0.84083 0.25598,0.78766 0.0458,0.11311 0.10065,0.2229 0.1266,0.346 0,0 0,0.002 0,0.002 0.13928,0.0129 0.21065,0.0742 0.23349,0.1744 0.19592,0.13121 0.36834,0.29738 0.52042,0.48385 0.097,0.0827 0.20238,0.15653 0.28413,0.25036 0.0162,0.0185 0.0129,0.0129 0.028,0.0309 0.12502,6.7e-4 0.25016,0.0556 0.5823,0.346 0.34768,0.34801 0.53609,0.59725 0.66388,0.87205 0.11898,0.0204 0.23968,0.0292 0.36289,0.0985 0.21992,0.12344 0.42751,0.26862 0.64138,0.40227 -0.13264,-0.22186 0.0182,-0.0144 0.30099,0.28131 0.005,0.002 0.007,0.006 0.012,0.008 0.0461,0.0273 0.0597,0.0271 0.0843,0.0478 0.002,0.002 0.005,0.007 0.008,0.012 0.22821,0.14072 0.28789,0.23913 0.70044,0.81017 -0.0264,-0.0606 -0.12141,-0.2334 -0.0787,-0.18286 0.10041,0.10352 0.16844,0.23249 0.24193,0.35726 2.37386,1.46304 7.42489,6.0333 15.08646,13.67148 9.61248,9.58315 21.21427,20.7858 25.78171,24.8956 4.56759,4.10979 7.88468,7.89372 7.37021,8.40824 -0.51461,0.51453 1.1519,2.30213 3.70482,3.97487 2.55291,1.67274 4.11924,3.88798 3.47976,4.92286 -0.65375,1.05774 -0.30176,1.35038 0.80453,0.66669 1.08238,-0.66892 2.68044,0.055 3.55007,1.60907 0.86965,1.55401 3.29371,2.95354 5.38703,3.11125 2.09318,0.15767 3.40771,0.92851 2.92276,1.71316 -0.48494,0.78462 0.42886,1.42903 2.03105,1.42903 1.60217,0 2.41233,0.81016 1.80035,1.80036 -0.61198,0.99019 -0.19078,1.80035 0.93394,1.80035 2.58431,0 13.62305,10.96979 13.01885,12.9373 -0.24744,0.80611 0.51612,1.46559 1.69629,1.46559 1.18013,0 5.16781,3.24064 8.86114,7.20143 3.69347,3.9608 7.67635,7.20145 8.84989,7.20145 1.27811,0 1.65683,1.24008 0.94518,3.09437 -0.65316,1.70265 -0.67036,2.58058 -0.0393,1.94945 1.44575,-1.44568 8.04254,4.07605 8.04254,6.73166 0,1.08668 1.82282,3.66629 4.0508,5.73021 7.49915,6.94713 18.48725,19.2942 14.85297,16.6899 -2.68081,-1.92099 -2.45079,-1.24369 0.90018,2.65834 7.02587,8.18148 12.35615,14.11455 16.46486,18.3243 2.26859,2.32429 3.21899,4.77185 2.37984,6.12965 -0.90563,1.46523 -0.66381,1.80889 0.68357,0.97613 1.14331,-0.70653 2.07605,-0.42673 2.07605,0.6217 0,3.81548 0.29926,4.65526 2.59365,7.30833 3.75411,4.34098 17.03188,31.83629 20.72664,42.92171 6.24164,18.72657 6.33631,28.45893 0.43602,44.62643 -6.5137,17.84772 -15.77255,30.92273 -28.91547,40.83441 -25.98797,19.59894 -44.37781,28.71168 -90.25992,44.72769 -36.77171,12.83584 -44.62128,14.3531 -79.21584,15.3115 -36.17457,1.0022 -43.20864,2.43499 -43.20864,8.79365 0,5.41505 4.87056,8.09445 17.8742,9.83728 5.51847,0.73961 18.538,2.63702 28.93516,4.21677 10.397,1.57974 21.73927,3.22307 25.20503,3.65137 l 0.002,0 c 3.46562,0.42829 17.64353,0.51715 31.5063,0.19972 22.8964,-0.52432 27.62355,-1.24085 51.61127,-7.84281 30.12218,-8.29035 56.41968,-17.77306 73.72192,-26.58064 6.5516,-3.33505 12.53631,-6.06216 13.29736,-6.06216 2.80193,0 32.6916,-23.47501 41.69239,-32.74404 12.36631,-12.73495 28.44468,-35.54851 31.77635,-45.08496 5.67013,-16.2305 8.44481,-27.24903 8.44481,-33.5542 0,-7.5187 -6.03155,-40.28879 -8.6811,-47.16663 -4.84024,-12.56425 -21.44177,-44.99264 -26.94914,-52.64084 -3.42558,-4.75717 -6.22812,-10.71923 -6.22812,-13.2467 0,-2.68963 -0.5469,-3.70839 -1.31933,-2.45862 -0.84011,1.35937 -4.12814,-2.00652 -9.044,-9.26061 -29.88972,-44.10666 -61.20026,-86.42619 -77.80648,-105.16071 -19.35849,-21.83952 -41.00603,-47.28391 -41.00603,-48.19902 0,-0.48133 -4.36887,-7.21813 -9.70787,-14.97112 -24.84497,-36.07863 -34.40739,-71.4024 -36.49667,-134.80477 -0.95405,-28.94692 -0.64073,-36.51953 2.01978,-48.60972 1.73337,-7.87663 4.18699,-15.53373 5.45172,-17.01903 1.26457,-1.48529 2.89529,-4.65061 3.62321,-7.03265 0.72778,-2.38205 7.86458,-10.65758 15.86005,-18.389 9.29402,-8.98708 13.59806,-12.44725 15.80096,-12.46749 0.067,-0.0529 0.13496,-0.10399 0.19411,-0.16033 0.19351,-0.18436 0.26714,-0.24325 0.38257,-0.34602 0.0726,-0.17933 0.0914,-0.25582 0.15191,-0.37695 0.006,-0.0115 0.0705,-0.0638 0.0872,-0.0844 0.10388,-0.22857 0.21377,-0.45379 0.32068,-0.68076 0.28817,-0.0589 0.0588,-0.70982 0.33195,-0.81861 0.57695,-0.22969 0.97184,-0.36396 1.38402,-0.50915 0.0555,-0.20504 0.15072,-0.41669 0.2785,-0.63295 -0.11706,-10e-4 -0.1436,7e-5 -0.2785,-0.003 0.41195,-0.19568 0.47595,-0.25281 0.42478,-0.22223 0.1204,-0.17388 0.26819,-0.35424 0.43603,-0.54011 6.2e-4,-0.001 0.005,-0.006 0.006,-0.009 0.0818,-0.24599 0.80397,-0.84955 1.09709,-1.11115 0.4431,-0.43553 0.29384,-0.2856 0.50355,-0.31507 0.45383,-0.3612 0.89024,-0.71474 1.48248,-1.13647 4.37346,-3.11418 6.24829,-4.12187 6.99609,-3.26878 0.0406,-0.0156 0.0736,-0.0357 0.11538,-0.0507 0.34487,-0.12358 1.85064,-0.96802 2.67241,-0.98457 0.19537,-0.0746 0.37909,-0.12991 0.51198,-0.13221 1.23186,-0.0209 0.83409,-0.0539 1.53592,0.031 0.0307,0.007 0.0636,0.009 0.0956,0.0144 0.0405,-0.0115 0.12947,-0.0202 0.19408,-0.0225 0.51862,-0.0197 0.70209,-0.013 1.21807,-0.0115 0.0129,7.4e-4 0.0264,0.001 0.0393,0.003 -0.0165,-0.0193 -0.0212,-0.0465 -0.0393,-0.0647 -0.70387,-0.70381 0.11179,-0.74621 1.81442,-0.0928 0.47583,0.1826 0.91772,0.43618 1.32495,0.72015 0.0501,-0.0246 0.0976,-0.0467 0.15472,-0.0732 0.0316,-0.0566 0.0573,-0.11767 0.0929,-0.1716 0.0665,-0.10126 0.19278,-0.0753 0.32913,-0.0281 0.0983,-0.0435 0.17608,-0.0867 0.25598,-0.12373 0.97199,-0.40702 1.98847,-0.1661 2.99873,-0.14071 10e-6,-1e-4 -2e-5,-0.0115 0,-0.0115 10e-4,-0.0101 1.59424,-0.009 1.86506,-0.006 0.0326,-0.0226 0.0652,-0.0451 0.0985,-0.0675 -0.002,-0.003 -0.0268,-0.004 -0.0198,-0.009 0.0163,-0.009 0.0522,-0.0144 0.0703,-0.0225 4.113,-2.74995 12.8981,-4.57617 26.30213,-5.45734 9.65701,-0.634861 12.36878,-0.493381 12.32683,1.02959 0.62614,0.006 1.25333,-0.007 1.87913,-0.0254 0.84686,-0.0245 1.51289,0.14115 2.01697,0.40789 1.15708,-0.37613 2.83206,-0.61888 4.71187,-0.61888 3.96296,0 6.13418,0.80214 5.85117,2.16607 -0.24758,1.19273 0.49322,2.20551 1.64846,2.25045 1.15525,0.0449 2.70902,0.692 3.45163,1.43465 0.74276,0.74264 2.8447,1.35027 4.66968,1.35027 1.82514,0 4.70407,1.62033 6.39972,3.60072 1.69565,1.9804 4.20434,3.60072 5.57549,3.60072 1.19503,0 1.77413,0.66673 1.6597,1.78911 0.51476,0.26793 1.04187,0.6858 1.53593,1.27995 0.14159,0.17022 0.29325,0.33388 0.42478,0.51197 0.41281,0.55892 0.81829,1.14715 1.03239,1.5303 0.0382,0.0525 0.0863,0.12877 0.11814,0.16317 -0.0207,-0.0205 -0.0414,-0.0409 -0.0619,-0.062 0.0952,0.18752 0.14158,0.32393 0.0449,0.2982 -0.18784,-0.0501 -0.35969,-0.19455 -0.48103,-0.37415 0.11849,0.14331 0.22882,0.29334 0.35163,0.43321 0.73421,0.19229 1.30097,0.39554 1.88755,0.95926 0.1932,-0.0259 0.38824,-0.0266 0.57951,0.0198 0.52406,-0.66106 1.0918,-1.14774 1.42341,-1.14774 0.43668,0 0.79328,0.81016 0.79328,1.80036 0,0.52765 -0.25112,0.99491 -0.63857,1.32214 0.0682,0.31589 0.11538,0.65605 0.11538,1.04647 l 0,1.73565 c 0.0515,0.0814 0.0836,0.1521 0.028,0.14346 -0.007,-0.001 -0.0183,-0.007 -0.028,-0.012 l 0,1.74127 c 0.0975,0.0327 0.19658,0.0784 0.29819,0.14072 0.012,-0.16757 0.0551,-0.26282 0.13494,-0.19973 0.0528,-0.16271 0.0427,0.012 0.0422,0.0534 0.0526,0.0642 0.1131,0.23251 0.17441,0.40226 2.2717,2.10519 5.40488,11.36835 7.65433,23.33155 2.7124,14.4256 3.44815,21.6451 2.26453,26.28808 0.11023,0.37999 0.1744,0.82053 0.1744,1.32494 l 0,3.53884 0,2.32639 c 0,0.89308 0.0477,0.40166 -0.63293,1.90164 -0.0564,0.1243 -0.27735,0.4668 -0.23348,0.33756 0.10687,-0.31473 0.53207,-1.21123 0.34881,-0.93393 -0.3445,0.52133 -0.55825,1.11513 -0.83829,1.67377 -0.0484,0.0993 -0.052,0.12688 -0.0309,0.1125 -0.0969,0.12733 -0.19142,0.26525 -0.29255,0.38257 0.0214,0.13295 0.0606,0.30018 0.0506,0.31226 -0.33782,0.4068 -0.70329,0.78746 -1.0774,1.16179 -0.17389,0.37894 -0.39899,0.74021 -0.55979,0.99583 -0.0853,0.11239 -0.0961,0.10592 -0.1519,0.1716 -0.33146,1.56891 -1.40181,2.23475 -2.36018,1.9804 -1.1352,1.67077 -5.35745,4.77123 -8.92303,6.12684 -7.48057,2.84413 -16.37089,2.12844 -23.13463,-1.86224 -14.13858,-8.34197 -16.04614,-39.42481 -3.13655,-51.10773 2.06206,-1.86622 3.7498,-5.35495 3.7498,-7.7556 0,-3.80688 -0.63301,-4.23599 -4.95098,-3.35318 -2.72316,0.55673 -7.38148,1.40656 -10.35208,1.89038 -11.45101,1.86497 -22.87024,6.27857 -31.95356,12.34934 -12.85184,8.58948 -16.83046,12.59174 -24.86466,25.0222 -11.15865,17.26466 -13.14767,25.59907 -13.23265,55.43138 -0.0877,30.74377 1.56565,36.3186 17.4635,58.87741 15.9153,22.58389 34.4332,38.10146 55.87866,46.82905 12.26405,4.99111 13.65299,5.22718 40.81753,6.93702 l 18.90378,1.18992 15.00488,-6.64445 c 24.88142,-11.01756 39.85198,-20.52324 55.58612,-35.29549 32.33763,-30.36091 46.10222,-62.51226 48.50002,-113.30173 0.9428,-19.97075 0.7752,-21.24621 -4.70063,-36.00721 C 741.69647,109.65121 707.49182,64.415958 674.91524,43.448144 627.40677,12.869505 604.47275,2.4610324 572.57321,2.276157 Z m 45.0934,118.112063 c -0.10556,-0.15615 -0.16239,-0.33938 -0.16879,-0.51198 -0.11622,-0.081 -0.4198,-0.22117 -0.34601,-0.12099 0.1612,0.21892 0.3414,0.42342 0.5148,0.63294 z m -107.4168,-4.38557 c -0.0651,0.14331 -0.13135,0.28592 -0.19972,0.42758 0.14664,-0.1266 0.0476,0.0429 -0.15471,0.32914 0.0566,-0.10731 0.10196,-0.21996 0.15471,-0.32914 -0.01,0.009 -0.0278,0.0235 -0.0393,0.0337 -0.0583,0.14428 -0.15864,0.36929 -0.12098,0.30381 -0.055,0.0775 -0.06,0.0949 -0.1491,0.2138 0.20003,0.0301 0.37637,0.10226 0.54011,0.1969 0.0643,-0.10169 0.13452,-0.19908 0.1941,-0.3038 -0.0351,-0.11451 -0.0602,-0.21105 -0.10412,-0.34039 -0.0244,-0.0725 0.18255,-0.20478 0.4501,-0.34601 0.10124,-0.22827 0.19227,-0.46229 0.27005,-0.69763 0.13971,-0.4226 -0.64766,0.27502 -0.8411,0.51198 z M 421.19388,417.1382 c -0.0268,-0.0165 -0.0579,-0.0398 -0.0929,-0.0591 0.0729,0.0756 0.10376,0.1207 0.19975,0.20816 0.0449,0.0409 -0.0532,-0.0957 -0.10688,-0.14908 z m -14.10751,-19.96714 c -0.005,-0.005 -0.007,-0.005 -0.012,-0.008 0.0186,0.0544 0.0278,0.0865 0.0507,0.14908 -0.0193,-0.0665 -0.0272,-0.1034 -0.0393,-0.14071 z m -0.012,-0.008 c -0.006,-0.0184 -0.012,-0.0329 -0.0169,-0.0507 -0.02,-0.0365 -0.0451,-0.0693 -0.10688,-0.12099 -0.0268,-0.0224 0.0751,0.0562 0.0591,0.0871 -0.0144,0.0271 -0.10388,-0.0631 -0.0815,-0.0422 0.1034,0.0962 0.0813,0.0701 0.14628,0.1266 z M 538.24796,105.6138 c -0.001,-0.0321 0.005,0.15065 0.002,0.12098 l 0.002,-0.003 c -0.001,-0.0336 -0.005,-0.0867 -0.006,-0.1181 z m -11.30851,0.65545 c -0.12905,0.0376 -0.19406,0.0472 -0.30943,0.0788 0.007,0.0286 0.0157,0.0484 0.0225,0.0788 0.0954,-0.0144 0.18976,-0.0315 0.28974,-0.0478 -0.002,-0.12632 -2.1e-4,0.0248 -0.002,-0.10975 z m 9.70787,0.22222 c -0.006,0.10398 -0.008,0.11522 -0.0144,0.21379 -3.9e-4,-0.009 0.007,0.5144 0.008,0.60762 0.01,-0.0144 0.0207,-0.0279 0.0309,-0.0422 -0.012,-0.29261 -0.0172,-0.52025 -0.0254,-0.77923 z m 81.65197,14.63636 c 0.21934,0.24152 0.43665,0.48395 0.66106,0.72014 0.0991,0.10424 0.01,-0.33689 -0.10975,-0.41633 -0.17475,-0.11586 -0.36661,-0.20447 -0.55136,-0.30381 z m -1.6344,3.36162 c 0.0301,0.052 0.0568,0.10592 0.0871,0.15752 0.008,-3.1e-4 0.0169,0.002 0.0254,0.002 -0.002,-0.008 -0.012,-0.0248 -0.0144,-0.0337 -0.007,-0.0324 -0.01,-0.066 -0.0169,-0.0985 -0.0273,-0.008 -0.0543,-0.0187 -0.0815,-0.028 z m 0.14072,0.25318 c 0.0276,0.0461 0.051,0.0949 0.0787,0.14071 -0.021,-0.0457 -0.047,-0.0936 -0.062,-0.13496 -0.006,-10e-4 -0.012,-0.002 -0.0169,-0.006 z m 0.85798,1.29963 c 0.11753,0.16657 0.23008,0.34705 0.34882,0.50353 8.4e-4,-0.0341 10e-4,-0.0651 0.002,-0.0956 -0.1149,-0.12487 -0.2218,-0.24753 -0.35163,-0.40789 z m 12.21432,63.68773 c -0.0839,0.0762 -0.1748,0.14564 -0.26162,0.21941 l 0,0.77359 c 0,0.0291 -0.006,0.0528 -0.006,0.0815 0.0443,-0.12156 0.015,-0.0427 0.16877,-0.45853 0.0628,-0.16994 0.0914,-0.28745 0.12372,-0.41072 -0.008,-0.0696 -0.0158,-0.13797 -0.0254,-0.20535 z m 0.0394,1.15335 c -0.11215,0.11107 -0.22307,0.22325 -0.33476,0.33476 -0.002,0.0374 -10e-4,0.0786 -0.006,0.11538 0.14559,-0.0924 0.27366,-0.20561 0.33475,-0.37412 0.007,-0.0187 3.3e-4,-0.0551 0.006,-0.076 z M 173.46417,248.1123 c -11.26862,0.019 -12.64252,4.48305 -9.07213,20.1809 1.5514,6.82093 2.81869,17.59162 2.81869,23.93636 l 0,11.53636 -9.45189,8.84989 c -18.78703,17.59314 -25.46824,22.26614 -30.91838,21.48056 -0.0694,0.61128 -0.17911,1.20254 -0.34319,1.76379 0.0945,0.3278 -0.0706,0.72615 -0.43321,1.20681 -1.12145,2.53493 -3.2736,4.36095 -6.04526,5.10288 -3.9365,2.95429 -9.88797,7.11356 -13.95279,9.72476 -10.216037,6.56269 -29.3425,22.50284 -39.160655,32.63434 -9.87836,10.19359 -17.259736,25.18479 -21.185168,43.03141 -1.735936,7.89233 -4.973185,16.80411 -7.195824,19.80397 -11.712522,15.80816 -10.538572,44.76672 2.343292,57.81686 14.227395,14.41327 42.884922,18.66023 61.530115,9.11995 5.44609,-2.78663 11.11722,-5.82775 12.60252,-6.75697 1.48529,-0.9292 5.53611,-2.9236 9.00179,-4.43338 3.46571,-1.50977 7.92159,-3.49751 9.90199,-4.4165 8.04263,-3.73221 19.22924,-6.74537 22.17536,-5.97496 1.72307,0.4506 12.83343,-1.56948 24.68744,-4.48684 11.85401,-2.91737 28.03217,-5.84852 35.95376,-6.51504 19.64772,-1.65315 44.67442,1.37359 50.72796,6.13529 2.56831,2.02025 5.32974,3.67385 6.13528,3.67385 0.80571,0 3.6498,2.02541 6.32096,4.5009 2.67115,2.4755 6.60865,4.5009 8.74863,4.5009 2.13998,0 6.4574,2.1264 9.59535,4.72595 5.28327,4.37686 8.06494,8.23893 20.91231,29.0308 2.96628,4.80056 6.04601,7.65153 8.26477,7.65153 6.57636,0 8.85084,-6.89417 10.11859,-30.66518 1.09073,-20.4515 0.76139,-24.36506 -3.69918,-44.04976 -13.00753,-57.40442 -38.18803,-107.1822 -67.92983,-134.27871 -8.24219,-7.50906 -18.41333,-15.81264 -22.60295,-18.4537 -4.98122,-3.14013 -7.98773,-6.51606 -8.68675,-9.75289 -3.42039,-15.8386 -8.90715,-26.3744 -18.65341,-35.82998 -10.52784,-10.21385 -27.86838,-19.82945 -37.05929,-20.54941 -2.02804,-0.15888 -3.83911,-0.24745 -5.4489,-0.24474 z m 217.64388,127.3642 c 0.001,0.012 3.6e-4,0.025 0.002,0.0366 0.0187,0.006 0.008,-0.0169 -0.002,-0.0366 z m 1.57813,3.08876 c 0.14779,0.0613 0.30279,0.10412 0.45571,0.1519 -0.0213,-0.0189 -0.0371,-0.0449 -0.0619,-0.0591 -0.11682,-0.0667 -0.51806,-0.14438 -0.39383,-0.0927 z m 0.647,0.25318 c 0.01,0.0211 0.0176,0.0436 0.028,0.0647 0.0258,0.0346 0.0407,0.0612 0.0422,0.0703 -0.002,-0.0184 -0.012,-0.0542 -0.0169,-0.0815 -0.0156,-0.0198 -0.0411,-0.0476 -0.0534,-0.0534 z m 2.95934,3.27721 c 0.027,0.0422 0.0527,0.0854 0.0815,0.12661 -0.0383,-0.10819 -0.0854,-0.22603 -0.0815,-0.12661 z m 1.23774,2.58801 c -0.0326,-0.0226 -0.043,-0.0144 -0.0144,0.0478 0.0555,0.0435 0.15294,0.12171 0.23349,0.18003 -0.0909,-0.10423 -0.16928,-0.19304 -0.21941,-0.22786 z m 0.46978,0.65265 c 0.10748,0.10112 0.0828,0.0673 0.15755,0.13221 -0.0207,-0.0321 -0.0439,-0.079 -0.062,-0.0985 -0.0232,-0.0249 -0.12041,-0.0569 -0.0956,-0.0337 z m 10.28457,13.72774 c 0.0244,0.17863 0.044,0.35881 0.09,0.53167 0.0316,0.11849 0.0382,-0.25181 0,-0.36852 -0.017,-0.0521 -0.049,-0.0999 -0.0732,-0.14909 -0.006,-0.005 -0.012,-0.008 -0.0169,-0.0144 z m 1.60624,5.7724 c 0.10664,0.15414 0.19154,0.3251 0.26725,0.50072 0.17522,0.0448 0.35011,0.0914 0.51479,0.12934 0.16752,-0.12472 0.30141,-0.20974 0.48667,-0.35726 0.0213,-0.017 0.0351,-0.0228 0.0563,-0.0393 -0.31293,-0.24267 -0.82452,-0.22635 -1.32496,-0.23348 z m 3.60354,2.0254 c 0.002,0.0147 0.005,0.0213 0.006,0.0309 0.029,0.038 0.0367,0.0518 0.0619,0.0843 -0.0297,-0.0579 -0.0357,-0.0726 -0.0563,-0.10687 -0.002,-0.005 -0.006,-0.002 -0.012,-0.008 z m 1.29681,2.53458 c 5.9e-4,0.002 -5.5e-4,0.006 0,0.008 0.0761,0.005 0.12344,0.008 0.17723,0.0144 -0.006,-0.005 -0.012,-0.0129 -0.0169,-0.0169 -0.25996,-0.012 -0.0799,-10e-4 -0.16035,-0.006 z m -0.008,1.37277 c -0.0215,0.0831 -0.0383,0.16657 -0.0676,0.24755 -0.005,0.012 -10e-4,0.0299 -0.006,0.0422 0.0754,-0.0407 0.16464,-0.0782 0.22504,-0.12097 -0.0548,-0.0653 -0.10029,-0.10999 -0.15189,-0.1688 z m 0.1519,0.1266 c 0.012,0.008 0.0248,0.0147 0.0365,0.0225 0.007,-0.005 0.0191,-0.008 0.0254,-0.0144 0.0164,-0.0129 -0.0791,-0.0201 -0.0619,-0.008 z m 1.42342,1.65128 c 0.0532,0.0792 -0.0462,-0.0733 0.0844,0.11538 0.0259,0.0376 -0.0487,-0.0768 -0.0732,-0.11538 -0.002,-2.8e-4 -0.007,2.4e-4 -0.012,0 z m -211.13723,97.813 c -6.3326,-0.0621 -12.23362,0.25863 -16.84181,1.03238 -39.59974,6.64912 -72.57002,31.72789 -81.57882,62.05053 -3.91734,13.18536 -3.75083,47.45328 0.26725,55.25417 9.23712,17.93334 19.86654,25.72958 33.3179,24.43708 5.74991,-0.5525 9.78747,-2.00679 11.29446,-4.06769 1.29004,-1.76424 5.35526,-11.50493 9.03274,-21.6465 8.0314,-22.14869 15.59667,-31.92045 29.45558,-38.0495 8.61406,-3.8097 11.93815,-4.21985 31.59349,-3.88765 21.44316,0.36241 22.28898,0.53219 35.50087,7.11986 21.69981,10.81991 30.8934,23.8891 43.31271,61.56669 4.57263,13.87497 4.54177,33.32969 -0.076,48.25809 -4.37271,14.13644 -18.90956,36.61599 -29.98163,46.36208 -5.08493,4.47598 -7.91988,8.30888 -7.31396,9.88792 l 0.002,0 c 2.57451,6.70895 34.4457,-9.38074 47.48449,-23.97011 16.68703,-18.67176 28.26504,-51.80801 30.58362,-87.53126 0.92942,-14.31856 0.46427,-18.33589 -3.87359,-33.30665 -2.71307,-9.36328 -6.79401,-20.42428 -9.0665,-24.58054 -6.40784,-11.72004 -28.81069,-40.6202 -35.0817,-45.25655 -16.60911,-12.27963 -37.17699,-24.16219 -49.11046,-28.37256 -8.96691,-3.16371 -24.9898,-5.16324 -38.92151,-5.29979 z"
     style="fill:#000000" />
  <path
     id="path4298"
     d="m 409.92113,132.76658 c 0.0956,0.38248 0.20954,0.76084 0.28686,1.14744 0.0781,0.39061 -0.1781,0.26374 0.28686,0.57371 0.1779,0.11861 0.42253,0.13568 0.57372,0.28686 0.0676,0.0676 -0.0302,0.19615 0,0.28686 0.0676,0.20284 0.21924,0.37088 0.28686,0.57372 0.0302,0.0907 -0.0428,0.20133 0,0.28686 0.0605,0.12095 0.21184,0.17434 0.28685,0.28686 0.11861,0.1779 0.13568,0.42253 0.28686,0.57371 0.0676,0.0676 0.21925,-0.0676 0.28686,0 0.0587,0.0587 -0.0569,0.74684 0,0.86058 0.0605,0.12095 0.22639,0.16591 0.28686,0.28686 0.0428,0.0855 0,0.19124 0,0.28686 0,0.0956 0,0.19124 0,0.28686"
     style="fill:none;fill-rule:evenodd;stroke:#000000;stroke-width:1px;stroke-linecap:butt;stroke-linejoin:miter;stroke-opacity:1" />
  <path
     id="path4300"
     d="m 408.7737,134.20088 c -0.29966,0.98232 0.87362,0.88666 1.14743,1.43429 0.0428,0.0855 -0.0676,0.21924 0,0.28686 0.0676,0.0676 0.20134,-0.0428 0.28686,0 0.12095,0.0605 0.16591,0.22638 0.28686,0.28686 0.70652,0.35326 -0.25896,-0.83268 0.86058,0.28686 0.0676,0.0676 -0.0676,0.21924 0,0.28685 0.0676,0.0676 0.20133,-0.0428 0.28685,0 0.12096,0.0605 0.16591,0.22639 0.28686,0.28686 0.0855,0.0428 0.21925,-0.0676 0.28686,0 0.0676,0.0676 -0.0428,0.20134 0,0.28686 0.31713,0.63426 0.17804,0.089 0.57372,0.28686 0.58017,0.29008 0.092,0.66571 0.28686,0.86058 0.4781,0.47809 0.28686,-1.05182 0.28686,0.57371"
     style="fill:none;fill-rule:evenodd;stroke:#000000;stroke-width:1px;stroke-linecap:butt;stroke-linejoin:miter;stroke-opacity:1" />
  <path
     id="path4302"
     d="m 409.92113,135.06145 c 0,0.76496 0,1.52992 0,2.29487 0,0.0956 -0.0676,0.21925 0,0.28686 0.0676,0.0676 0.21925,-0.0676 0.28686,0 0.13523,0.13523 -0.13523,0.43849 0,0.57372 0.0676,0.0676 0.21925,-0.0676 0.28686,0 0.0676,0.0676 -0.0676,0.21924 0,0.28686 0.0676,0.0676 0.21925,-0.0676 0.28686,0 0.0676,0.0676 -0.0676,0.21924 0,0.28686 0.0676,0.0676 0.21924,-0.0676 0.28686,0 0.0676,0.0676 -0.0676,0.21924 0,0.28685 0.0676,0.0676 0.19124,0 0.28686,0 0.0956,0 0.19124,0 0.28685,0"
     style="fill:none;fill-rule:evenodd;stroke:#000000;stroke-width:1px;stroke-linecap:butt;stroke-linejoin:miter;stroke-opacity:1" />
  <path
     id="path4304"
     d="m 411.64228,138.50376 c 0,0.0956 -0.0956,0.28686 0,0.28686 0.0956,0 0,-0.19126 0,-0.28686 0,-0.9562 0,-1.91239 0,-2.86859 -0.28686,0.38248 -0.57371,0.76496 -0.86057,1.14743 -0.0956,0 -0.21925,-0.0676 -0.28686,0 -0.38248,0.38248 0.4781,0.28686 -0.28686,0.28686"
     style="fill:none;fill-rule:evenodd;stroke:#000000;stroke-width:1px;stroke-linecap:butt;stroke-linejoin:miter;stroke-opacity:1" />
  <path
     id="path4306"
     d="m 417.0926,133.62716 -5.73717,4.01602"
     style="fill:none;fill-rule:evenodd;stroke:#000000;stroke-width:1px;stroke-linecap:butt;stroke-linejoin:miter;stroke-opacity:1" />
  <path
     id="path4308"
     d="m 419.10061,134.20088 -7.74518,3.15544"
     style="fill:none;fill-rule:evenodd;stroke:#000000;stroke-width:1px;stroke-linecap:butt;stroke-linejoin:miter;stroke-opacity:1" />
  <path
     id="path4310"
     d="m 416.23202,131.33229 -5.73717,6.59775"
     style="fill:none;fill-rule:evenodd;stroke:#000000;stroke-width:1px;stroke-linecap:butt;stroke-linejoin:miter;stroke-opacity:1" />
</svg>
